# xmcd
#
# Track frame offsets:
#	150
#	10533
#	26909
#	38755
#	49460
#	59984
#	74928
#	90428
#	106773
#	117910
#	129145
#	142373
#
# Disc length: 2036 seconds
#
# Revision: 0
# Processed by: cddbd v1.4PL0 Copyright (c) Steve Scherf et al.
# Submitted via: dBpowerAMP V4.0
#
DISCID=b107f20c
DTITLE=Mark Johnson and Emory Lester - Acoustic Campaign
DYEAR=2002
DGENRE=Bluegrass
TTITLE0=Foggy Dew
TTITLE1=Mosby's Rangers
TTITLE2=Forked Deer
TTITLE3=Heartbroken
TTITLE4=Red Mud
TTITLE5=Cherokee Shuffle
TTITLE6=Jerusalem's Ridge
TTITLE7=Marching Through Georgia
TTITLE8=Three Days of Omaha
TTITLE9=Hey God
TTITLE10=Soldier's Joy
TTITLE11=Mother Banjo
EXTD=
EXTT0=
EXTT1=
EXTT2=
EXTT3=
EXTT4=
EXTT5=
EXTT6=
EXTT7=
EXTT8=
EXTT9=
EXTT10=
EXTT11=
PLAYORDER=
